<?xml version="1.0" encoding="utf-8"?>
<!-- Generator: Adobe Illustrator 26.1.0, SVG Export Plug-In . SVG Version: 6.00 Build 0)  -->
<svg version="1.1" id="Layer_1" xmlns="http://www.w3.org/2000/svg" xmlns:xlink="http://www.w3.org/1999/xlink" x="0px" y="0px"
	 viewBox="0 0 900.1 969.9" style="enable-background:new 0 0 900.1 969.9;" xml:space="preserve">
<style type="text/css">
	.st0{display:none;fill:#050505;}
	.st1{fill:#FFFFFF;}
	.st2{clip-path:url(#SVGID_00000040562762626505231910000016196564982935671194_);}
	.st3{clip-path:url(#SVGID_00000032608522348965010240000002431761905151089065_);}
</style>
<g>
	<g id="Layer_2_00000037680862487482926460000018051018093323178886_">
		<g id="Layer_1-2">
			<rect y="36.8" class="st0" width="900.1" height="900.1"/>
			<path class="st1" d="M356.4,686c-29.5,0-53.5-40.9-53.5-91.2s24-91.2,53.5-91.2s53.5,40.9,53.5,91.2S385.9,686,356.4,686z
				 M356.4,506.7c-27.8,0-50.5,39.6-50.5,88.2s22.7,88.2,50.5,88.2s50.5-39.5,50.5-88.2S384.3,506.7,356.4,506.7L356.4,506.7z"/>
			<path class="st1" d="M309.1,686c-29.5,0-53.5-40.9-53.5-91.2s24-91.2,53.5-91.2s53.5,40.9,53.5,91.2S338.6,686,309.1,686z
				 M309.1,506.7c-27.9,0-50.5,39.6-50.5,88.2s22.6,88.2,50.5,88.2s50.5-39.5,50.5-88.2S336.9,506.7,309.1,506.7L309.1,506.7z"/>
			<path class="st1" d="M332.8,716.7c-42.5,0-77.2-54.5-77.2-121.5s34.6-121.5,77.2-121.5s77.2,54.5,77.2,121.5
				S375.3,716.7,332.8,716.7z M332.8,476.7c-40.9,0-74.2,53.2-74.2,118.5s33.3,118.5,74.2,118.5s74.2-53.2,74.2-118.5
				S373.6,476.7,332.8,476.7z"/>
			<path class="st1" d="M724.5,589v3.6h-75.6l-46.9,1c-16.8,2.8-30,16-32.8,32.8l-0.8,20.1v41.3h-3.6v-44.7l-0.7-16.8
				c-2.8-16.8-16-30-32.8-32.8l-46.4-1h-76.2V589h96.1l26.5-0.6c16.8-2.8,30-16,32.8-32.8l0.7-15.3v-40.7h3.6v37.6l0.8,18.3
				c2.8,16.8,16,30,32.8,32.8l26.8,0.6L724.5,589z"/>
			<path class="st1" d="M543.6,469.2c-29.5,0-53.5-40.9-53.5-91.2s24-91.2,53.5-91.2s53.5,40.9,53.5,91.2S573.1,469.2,543.6,469.2z
				 M543.6,289.9c-27.8,0-50.5,39.5-50.5,88.2s22.7,88.2,50.5,88.2s50.5-39.5,50.5-88.2S571.5,289.9,543.6,289.9z"/>
			<path class="st1" d="M591,469.2c-29.5,0-53.5-40.9-53.5-91.2s24-91.2,53.5-91.2s53.5,40.9,53.5,91.2S620.5,469.2,591,469.2z
				 M591,289.9c-27.8,0-50.5,39.5-50.5,88.2s22.6,88.2,50.5,88.2s50.5-39.5,50.5-88.2S618.8,289.9,591,289.9z"/>
			<path class="st1" d="M567.3,499.9c-42.5,0-77.2-54.5-77.2-121.5s34.6-121.5,77.2-121.5s77.2,54.5,77.2,121.5
				S609.9,499.9,567.3,499.9z M567.3,259.9c-40.9,0-74.2,53.2-74.2,118.5s33.3,118.5,74.2,118.5s74.2-53.2,74.2-118.5
				S608.2,259.9,567.3,259.9z"/>
			<path class="st1" d="M175.6,373.2v3.6h75.6l46.9,1c16.8,2.8,30,16,32.8,32.8l0.8,20.1v44.1h3.6v-47.5l0.7-16.8
				c2.8-16.8,16-30,32.8-32.8l46.4-1h76.2v-3.6h-96.1l-26.5-0.6c-16.8-2.8-30-16-32.8-32.8l-0.7-15.3v-40.7h-3.6v37.6l-0.8,18.3
				c-2.8,16.8-16,30-32.8,32.8l-26.8,0.6H175.6z"/>
			
				<image style="overflow:visible;enable-background:new    ;" width="273" height="1573" xlink:href="572E916D1E5419B6.png"  transform="matrix(0.24 0 0 0.24 300.56 30)">
			</image>
			<g>
				<polygon class="st1" points="334,60 336,377.4 330.7,377.4 				"/>
			</g>
			
				<image style="overflow:visible;enable-background:new    ;" width="531" height="1823" xlink:href="572E916D1E5419B1.png"  transform="matrix(0.24 0 0 0.24 269.6 0)">
			</image>
			<g>
				<defs>
					<polygon id="SVGID_1_" points="334,60 337,377.4 329.7,377.4 					"/>
				</defs>
				<clipPath id="SVGID_00000139285454054150071950000010422960109922529944_">
					<use xlink:href="#SVGID_1_"  style="overflow:visible;"/>
				</clipPath>
				<g style="clip-path:url(#SVGID_00000139285454054150071950000010422960109922529944_);">
					<rect x="329.7" y="60" class="st1" width="7.3" height="317.3"/>
				</g>
			</g>
			
				<image style="overflow:visible;enable-background:new    ;" width="274" height="1557" xlink:href="572E916D1E5419B0.png"  transform="matrix(0.24 0 0 0.24 532.81 566.25)">
			</image>
			<g>
				<polygon class="st1" points="566.4,909.7 568.4,596.3 563,596.3 				"/>
			</g>
			
				<image style="overflow:visible;enable-background:new    ;" width="532" height="1807" xlink:href="572E916D1E5419BF.png"  transform="matrix(0.24 0 0 0.24 501.85 536.25)">
			</image>
			<g>
				<defs>
					<polygon id="SVGID_00000005968366279652559980000003953381146153824701_" points="566.4,909.7 569.4,596.3 562,596.3 					"/>
				</defs>
				<clipPath id="SVGID_00000150084021310295312680000008067548399057570740_">
					<use xlink:href="#SVGID_00000005968366279652559980000003953381146153824701_"  style="overflow:visible;"/>
				</clipPath>
				<g style="clip-path:url(#SVGID_00000150084021310295312680000008067548399057570740_);">
					<rect x="562" y="596.3" class="st1" width="7.3" height="313.4"/>
				</g>
			</g>
		</g>
	</g>
</g>
</svg>
