<?xml version="1.0" encoding="utf-8"?>
<!-- Generator: Adobe Illustrator 26.1.0, SVG Export Plug-In . SVG Version: 6.00 Build 0)  -->
<svg version="1.1" id="Layer_1" xmlns="http://www.w3.org/2000/svg" xmlns:xlink="http://www.w3.org/1999/xlink" x="0px" y="0px"
	 viewBox="0 0 900.1 900.1" style="enable-background:new 0 0 900.1 900.1;" xml:space="preserve">
<style type="text/css">
	.st0{display:none;fill:#050505;}
	.st1{fill:#FFFFFF;}
	.st2{clip-path:url(#SVGID_00000116202394596536423370000001268840610709871039_);}
	.st3{clip-path:url(#SVGID_00000169539128067017540170000017436730521498282412_);}
	.st4{clip-path:url(#SVGID_00000143603549829896606820000016242346890671596478_);}
</style>
<g>
	<g id="Layer_2_00000046319368382116315240000009755876663379692204_">
		<g id="Layer_1-2">
			<rect class="st0" width="900.1" height="900.1"/>
			<path class="st1" d="M450,488.4c-56.4,0-109.4-12.7-149.2-35.9c-40.1-23.3-62.3-54.3-62.3-87.4s22.1-64.1,62.3-87.4
				c39.9-23.1,92.9-35.9,149.2-35.9s109.4,12.7,149.2,35.9c40.1,23.3,62.2,54.3,62.2,87.4s-22.1,64.1-62.2,87.4
				C559.4,475.7,506.4,488.4,450,488.4z M450,244.9c-115,0-208.5,53.9-208.5,120.2S335.1,485.4,450,485.4s208.5-54,208.5-120.2
				S565,244.9,450,244.9z"/>
			<path class="st1" d="M450,600.4c-56.4,0-109.4-12.7-149.2-35.9c-40.1-23.3-62.3-54.3-62.3-87.4s22.1-64.1,62.3-87.4
				c39.9-23.1,92.9-35.9,149.2-35.9s109.4,12.7,149.2,35.9c40.1,23.3,62.2,54.3,62.2,87.4s-22.1,64.1-62.2,87.4
				C559.4,587.7,506.4,600.4,450,600.4z M450,356.9c-115,0-208.5,53.9-208.5,120.2S335.1,597.4,450,597.4s208.5-54,208.5-120.2
				S565,356.9,450,356.9L450,356.9z"/>
			<path class="st1" d="M450,544.9c-69.6,0-135-15.7-184.2-44.1C216.3,472.2,189,434,189,393.4s27.3-78.8,76.8-107.4
				c49.2-28.4,114.7-44.1,184.2-44.1s135,15.7,184.3,44.1c49.5,28.6,76.7,66.8,76.7,107.4s-27.3,78.8-76.8,107.4
				C585,529.2,519.6,544.9,450,544.9z M450,244.9c-142.3,0-258,66.6-258,148.5s115.7,148.5,258,148.5s258-66.6,258-148.5
				S592.3,244.9,450,244.9L450,244.9z"/>
			<path class="st1" d="M450,600.4c-75.5,0-146.5-18.6-199.9-52.3c-53.6-33.8-83.1-78.9-83.1-126.9s29.5-93.1,83.1-127
				c53.4-33.7,124.4-52.3,199.9-52.3s146.5,18.6,199.8,52.3c53.6,33.9,83.2,78.9,83.2,127s-29.5,93.1-83.2,127
				C596.5,581.8,525.5,600.4,450,600.4z M450,244.9c-154.4,0-280,79.1-280,176.2s125.6,176.2,280,176.2s280-79.1,280-176.2
				S604.4,244.9,450,244.9L450,244.9z"/>
			<path class="st1" d="M450.8,417.7l3.6,50.9c2.2,13.2,13.4,13.8,26.8,14.8c7,0.5,27.9-1.4,27.9-1.4s-20.8,4.8-27.9,6.6
				c-13,3.3-24.6,8.5-26.8,21.8l-3.6,33.9l-3.6-33.9c-2.2-13.2-13.8-18.5-26.8-21.8c-7.2-1.8-27.9-6.6-27.9-6.6s21,1.9,27.9,1.4
				c13.4-1,24.6-1.5,26.8-14.8L450.8,417.7z"/>
			<path class="st1" d="M450.8,530l3.6,50.9c2.2,13.2,13.4,13.8,26.8,14.8c7,0.5,27.9-1.4,27.9-1.4s-20.8,4.8-27.9,6.6
				c-13,3.3-24.6,8.5-26.8,21.8l-3.6,33.9l-3.6-33.9c-2.2-13.2-13.8-18.5-26.8-21.8c-7.2-1.8-27.9-6.6-27.9-6.6s21,1.9,27.9,1.4
				c13.4-1,24.6-1.5,26.8-14.8L450.8,530z"/>
			<path class="st1" d="M342.1,469.7l4.6,42.1c2.2,13.3,12.9,17.2,26.7,23.1l29.1,7.5l-29.1-3.7c-13.8-1.7-24.7-2.8-27,9.2l-5,31.4
				l-4.6-35.1c-2.2-11.3-12.9-17.2-26.7-23.2l-29-12.5l29.2,6.7c13.8,1.7,24.7,2.8,27-9.2L342.1,469.7z"/>
			<path class="st1" d="M561.4,469.7l-4.6,42.1c-2.2,13.3-12.9,17.2-26.7,23.1l-29.1,7.5l29.2-3.7c13.8-1.7,24.7-2.8,27,9.2l5,31.4
				l4.6-35.1c2.2-11.3,12.9-17.2,26.7-23.1l29.1-12.5l-29.2,6.7c-13.8,1.7-24.7,2.8-27-9.2L561.4,469.7z"/>
			<g transform="translate(278.23 256.55) scale(0.24)">
				
					<image style="overflow:visible;enable-background:new    ;" width="531" height="1467" id="image-2" xlink:href="A7880E2CBABE051C.png"  transform="matrix(0.24 0 0 0.24 278.23 256.55)">
				</image>
			</g>
			<g>
				<polygon class="st1" points="342.6,316.8 345.6,548.4 338.2,548.4 				"/>
			</g>
			<g transform="translate(278.23 256.55) scale(0.24)">
				
					<image style="overflow:visible;enable-background:new    ;" width="531" height="1467" id="image-2_00000073714447835413001500000013996495674216273284_" xlink:href="A7880E2CBABE051D.png"  transform="matrix(0.24 0 0 0.24 278.23 256.55)">
				</image>
			</g>
			<g>
				<defs>
					<polygon id="SVGID_1_" points="342.6,316.8 345.6,548.4 338.2,548.4 					"/>
				</defs>
				<clipPath id="SVGID_00000117676311982052878030000011530205084457102771_">
					<use xlink:href="#SVGID_1_"  style="overflow:visible;"/>
				</clipPath>
				<g style="clip-path:url(#SVGID_00000117676311982052878030000011530205084457102771_);">
					<rect x="338.2" y="316.8" class="st1" width="7.3" height="231.7"/>
				</g>
			</g>
			<g transform="translate(498.23 256.55) scale(0.24)">
				
					<image style="overflow:visible;enable-background:new    ;" width="531" height="1467" id="image-2_00000061437952394306950860000010729214242604313220_" xlink:href="A7880E2CBABE051B.png"  transform="matrix(0.24 0 0 0.24 498.23 256.55)">
				</image>
			</g>
			<g>
				<polygon class="st1" points="562.6,316.8 565.6,548.4 558.2,548.4 				"/>
			</g>
			<g transform="translate(498.23 256.55) scale(0.24)">
				
					<image style="overflow:visible;enable-background:new    ;" width="531" height="1467" id="image-2_00000183228090506152884900000002153658467574922921_" xlink:href="A7880E2CBABE0524.png"  transform="matrix(0.24 0 0 0.24 498.23 256.55)">
				</image>
			</g>
			<g>
				<defs>
					<polygon id="SVGID_00000013915961293846867130000018100992622859051685_" points="562.6,316.8 565.6,548.4 558.2,548.4 					
						"/>
				</defs>
				<clipPath id="SVGID_00000061438564193506743520000003156103221404446905_">
					<use xlink:href="#SVGID_00000013915961293846867130000018100992622859051685_"  style="overflow:visible;"/>
				</clipPath>
				<g style="clip-path:url(#SVGID_00000061438564193506743520000003156103221404446905_);">
					<rect x="558.2" y="316.8" class="st1" width="7.3" height="231.7"/>
				</g>
			</g>
			<g transform="translate(386.47 208.55) scale(0.24)">
				
					<image style="overflow:visible;enable-background:new    ;" width="531" height="1667" id="image-3" xlink:href="A7880E2CBABE0527.png"  transform="matrix(0.24 0 0 0.24 386.47 208.55)">
				</image>
			</g>
			<g>
				<polygon class="st1" points="450.9,268.8 453.9,548.4 446.6,548.4 				"/>
			</g>
			<g transform="translate(386.47 208.55) scale(0.24)">
				
					<image style="overflow:visible;enable-background:new    ;" width="531" height="1667" id="image-3_00000042717142531228430160000017535630039308127113_" xlink:href="A7880E2CBABE0525.png"  transform="matrix(0.24 0 0 0.24 386.47 208.55)">
				</image>
			</g>
			<g>
				<defs>
					<polygon id="SVGID_00000157310204218554591790000010524200116732871610_" points="450.9,268.8 453.9,548.4 446.6,548.4 					
						"/>
				</defs>
				<clipPath id="SVGID_00000101811420280985706120000004780085611829411992_">
					<use xlink:href="#SVGID_00000157310204218554591790000010524200116732871610_"  style="overflow:visible;"/>
				</clipPath>
				<g style="clip-path:url(#SVGID_00000101811420280985706120000004780085611829411992_);">
					<rect x="446.6" y="268.8" class="st1" width="7.3" height="279.7"/>
				</g>
			</g>
		</g>
	</g>
</g>
</svg>
