<?xml version="1.0" encoding="utf-8"?>
<!-- Generator: Adobe Illustrator 26.1.0, SVG Export Plug-In . SVG Version: 6.00 Build 0)  -->
<svg version="1.1" id="Layer_1" xmlns="http://www.w3.org/2000/svg" xmlns:xlink="http://www.w3.org/1999/xlink" x="0px" y="0px"
	 viewBox="0 0 900.1 900.1" style="enable-background:new 0 0 900.1 900.1;" xml:space="preserve">
<style type="text/css">
	.st0{display:none;fill:#050505;}
	.st1{fill:#FFFFFF;}
	.st2{clip-path:url(#SVGID_00000011030953553557607540000014435509110665911967_);}
	.st3{clip-path:url(#SVGID_00000059993134801952851080000017154841203083278783_);}
	.st4{clip-path:url(#SVGID_00000163761746572713954060000003494023804995933853_);}
	.st5{clip-path:url(#SVGID_00000103232005461565264550000009013977182308909453_);}
	.st6{clip-path:url(#SVGID_00000008871157500253077620000017614076956286547358_);}
</style>
<g>
	<g id="Layer_2_00000023984611149299480910000002255158073777578171_">
		<g id="Layer_1-2">
			<rect class="st0" width="900.1" height="900.1"/>
			<path class="st1" d="M450,534.3c-70,0-133.5-4.1-178.8-11.5c-49.9-8.2-75.2-19.6-75.2-33.8c0-10.9,27.2-25.5,69.3-37.3
				c51.4-14.4,117-22.3,184.8-22.3c147.4,0,254.1,35.6,254.1,59.6c0,14.3-25.3,25.7-75.2,33.9C583.6,530.2,520.1,534.3,450,534.3z
				 M450,432.3c-67.5,0-132.8,7.9-184,22.2c-44,12.4-67,26.7-67,34.5c0,24.9,103.2,42.3,251.1,42.3s251-17.4,251-42.3
				c0-8.7-21.4-23.1-69.1-35.8C581.4,439.8,516.8,432.4,450,432.3L450,432.3z"/>
			<path class="st1" d="M450,569c-67.8,0-131.4-6.4-179-18.1c-48.4-11.9-75-28.2-75-45.8c0-15.9,27.4-32.3,75.1-45.1
				c49.9-13.4,113.4-20.8,179-20.8c64.8,0,128.4,7.6,179,21.5c47.7,13.1,75.1,29.2,75.1,44.4c0,17.6-26.7,33.9-75.1,45.8
				C581.4,562.5,517.9,569,450,569z M450,442.2c-65.3,0-128.6,7.3-178.2,20.7c-45.6,12.2-72.9,28-72.9,42.2
				C199,538.7,311.6,566,450,566s251.1-27.3,251.1-60.9c0-13.3-27.9-29.2-72.9-41.5C577.8,449.8,514.5,442.2,450,442.2L450,442.2z"
				/>
			<path class="st1" d="M450,607c-137.7,0-254-38-254-82.9c0-21.1,26.6-40.4,75-54.1c47-13.4,110.5-20.7,179-20.7s132,7.4,179,20.7
				c48.4,13.8,75.1,33,75.1,54.1C704.1,569,587.8,607,450,607z M450,452.3c-68.2,0-131.5,7.3-178.2,20.6
				c-47,13.4-72.9,31.6-72.9,51.2c0,19.9,26.6,40,72.9,55.3C320.2,595.2,383.5,604,450,604s129.8-8.7,178.1-24.6
				c46.4-15.2,72.9-35.3,72.9-55.3c0-19.7-25.9-37.9-72.9-51.2C581.5,459.6,518.2,452.3,450,452.3L450,452.3z"/>
			<path class="st1" d="M449.5,496.3l3.7,55.3c0.8,6.1,5.6,11,11.8,11.7l29.3,3.7l-29.3,3.7c-6.1,0.8-11,5.6-11.8,11.7l-3.7,52.3
				l-3.7-52.3c-0.8-6.1-5.6-11-11.8-11.7l-29.3-3.7l29.3-3.7c6.1-0.8,11-5.6,11.8-11.7L449.5,496.3z"/>
			<path class="st1" d="M333.6,527.4l3.9,22c0.7,4.1,1.3,8.8,6,10l25,4.9l-23,1.9c-4.1,0.7-7.3,2.9-8,7l-3.9,23l-3.9-23
				c-0.7-4.1-2.7-8.3-7-10l-24-7.9l23,0.1c4.4-0.1,6.5-0.1,8-6L333.6,527.4z"/>
			<path class="st1" d="M565.5,527.4l-3.8,22c-0.7,4.1-1.2,8.8-5.9,10l-24.5,4.9l22.5,1.9c4,0.7,7.2,2.9,7.9,7l3.8,23l3.8-23
				c0.7-4.1,2.6-8.3,6.9-10l23.5-7.9l-22.5,0.1c-4.3-0.1-6.4-0.1-7.9-6L565.5,527.4z"/>
			<path class="st1" d="M230,510.3l1.8,18.4c0.1,2.8,1.8,5.3,4.3,6.5l21.9,10.4l-17.2-3.1c-3.5-0.7-7.6,1.8-8.2,5.4l-2.6,15.6
				l-3.1-18.1c-0.2-1.3-1.4-6.5-3.4-8.7l-13-12.8l7.9,4c6.6,3.9,9.4,1.5,9.9-3.2L230,510.3z"/>
			<path class="st1" d="M669.5,511.3l-1.7,17.4c-0.1,2.8-1.8,5.3-4.3,6.5l-21.8,10.4l17.2-3.1c3.5-0.7,7.6,1.8,8.2,5.4l2.5,15.6
				l3.1-18.1c0.2-1.3,1.4-6.5,3.5-8.7l13-12.8l-7.9,4c-6.6,3.9-9.4,1.5-9.9-3.2L669.5,511.3z"/>
			<rect x="701.1" y="488.5" class="st1" width="3" height="36.8"/>
			<rect x="196.1" y="489.5" class="st1" width="3" height="36.8"/>
			
				<image style="overflow:visible;enable-background:new    ;" width="273" height="1973" xlink:href="66C5D5DEA78FBFF1.png"  transform="matrix(0.24 0 0 0.24 416.67 133.99)">
			</image>
			<g>
				<polygon class="st1" points="450.1,164 452.1,577.4 446.8,577.4 				"/>
			</g>
			
				<image style="overflow:visible;enable-background:new    ;" width="173" height="1873" xlink:href="66C5D5DEA78FBFF3.png"  transform="matrix(0.24 0 0 0.24 428.67 145.99)">
			</image>
			<g>
				<defs>
					<polygon id="SVGID_1_" points="450.1,164 452.1,577.4 446.8,577.4 					"/>
				</defs>
				<clipPath id="SVGID_00000181085988639464703840000016525045479107265683_">
					<use xlink:href="#SVGID_1_"  style="overflow:visible;"/>
				</clipPath>
				<g style="clip-path:url(#SVGID_00000181085988639464703840000016525045479107265683_);">
					<rect x="446.8" y="164" class="st1" width="5.3" height="413.3"/>
				</g>
			</g>
			
				<image style="overflow:visible;enable-background:new    ;" width="273" height="1753" xlink:href="66C5D5DEA78FBFF6.png"  transform="matrix(0.24 0 0 0.24 300.75 173.11)">
			</image>
			<g>
				<polygon class="st1" points="334.2,203.1 336.2,563.8 330.9,563.8 				"/>
			</g>
			
				<image style="overflow:visible;enable-background:new    ;" width="173" height="1653" xlink:href="66C5D5DEA78FBFF7.png"  transform="matrix(0.24 0 0 0.24 312.75 185.11)">
			</image>
			<g>
				<defs>
					<polygon id="SVGID_00000183951195373887302380000005583789760373737368_" points="334.2,203.1 336.2,563.8 330.9,563.8 					
						"/>
				</defs>
				<clipPath id="SVGID_00000041277295341509051550000000806476869675595688_">
					<use xlink:href="#SVGID_00000183951195373887302380000005583789760373737368_"  style="overflow:visible;"/>
				</clipPath>
				<g style="clip-path:url(#SVGID_00000041277295341509051550000000806476869675595688_);">
					<rect x="330.9" y="203.1" class="st1" width="5.3" height="360.7"/>
				</g>
			</g>
			
				<image style="overflow:visible;enable-background:new    ;" width="274" height="1753" xlink:href="66C5D5DEA78FBFF2.png"  transform="matrix(0.24 0 0 0.24 532.59 173.11)">
			</image>
			<g>
				<polygon class="st1" points="566.1,203.1 568.1,563.8 562.8,563.8 				"/>
			</g>
			
				<image style="overflow:visible;enable-background:new    ;" width="174" height="1653" xlink:href="66C5D5DEA78FBFFD.png"  transform="matrix(0.24 0 0 0.24 544.59 185.11)">
			</image>
			<g>
				<defs>
					<polygon id="SVGID_00000176745851968695131530000005227978750339913611_" points="566.1,203.1 568.1,563.8 562.8,563.8 					
						"/>
				</defs>
				<clipPath id="SVGID_00000153679809215377186260000014549387947212644995_">
					<use xlink:href="#SVGID_00000176745851968695131530000005227978750339913611_"  style="overflow:visible;"/>
				</clipPath>
				<g style="clip-path:url(#SVGID_00000153679809215377186260000014549387947212644995_);">
					<rect x="562.8" y="203.1" class="st1" width="5.3" height="360.7"/>
				</g>
			</g>
			
				<image style="overflow:visible;enable-background:new    ;" width="274" height="1560" xlink:href="66C5D5DEA78FBFFE.png"  transform="matrix(0.24 0 0 0.24 196.35 197.11)">
			</image>
			<g>
				<polygon class="st1" points="229.9,227.1 231.9,541.5 226.6,541.5 				"/>
			</g>
			
				<image style="overflow:visible;enable-background:new    ;" width="174" height="1460" xlink:href="66C5D5DEA78FBFFF.png"  transform="matrix(0.24 0 0 0.24 208.35 209.11)">
			</image>
			<g>
				<defs>
					<polygon id="SVGID_00000098922293504294097750000005801319856775888774_" points="229.9,227.1 231.9,541.5 226.6,541.5 					
						"/>
				</defs>
				<clipPath id="SVGID_00000098203076412052763170000012248583649424663455_">
					<use xlink:href="#SVGID_00000098922293504294097750000005801319856775888774_"  style="overflow:visible;"/>
				</clipPath>
				<g style="clip-path:url(#SVGID_00000098203076412052763170000012248583649424663455_);">
					<rect x="226.6" y="227.1" class="st1" width="5.3" height="314.3"/>
				</g>
			</g>
			
				<image style="overflow:visible;enable-background:new    ;" width="273" height="1560" xlink:href="66C5D5DEA78FBFF4.png"  transform="matrix(0.24 0 0 0.24 637.47 197.11)">
			</image>
			<g>
				<polygon class="st1" points="670.9,227.1 672.9,541.5 667.5,541.5 				"/>
			</g>
			
				<image style="overflow:visible;enable-background:new    ;" width="173" height="1460" xlink:href="DA97E92E37C6BDEA.png"  transform="matrix(0.24 0 0 0.24 649.47 209.11)">
			</image>
			<g>
				<defs>
					<polygon id="SVGID_00000073716284223931695970000003289129512096577457_" points="670.9,227.1 672.9,541.5 667.5,541.5 					
						"/>
				</defs>
				<clipPath id="SVGID_00000154407959598680057690000001426243829549729200_">
					<use xlink:href="#SVGID_00000073716284223931695970000003289129512096577457_"  style="overflow:visible;"/>
				</clipPath>
				<g style="clip-path:url(#SVGID_00000154407959598680057690000001426243829549729200_);">
					<rect x="667.5" y="227.1" class="st1" width="5.3" height="314.3"/>
				</g>
			</g>
		</g>
	</g>
</g>
</svg>
