<?xml version="1.0" encoding="utf-8"?>
<!-- Generator: Adobe Illustrator 26.1.0, SVG Export Plug-In . SVG Version: 6.00 Build 0)  -->
<svg version="1.1" id="Layer_1" xmlns="http://www.w3.org/2000/svg" xmlns:xlink="http://www.w3.org/1999/xlink" x="0px" y="0px"
	 viewBox="0 0 900.1 900.1" style="enable-background:new 0 0 900.1 900.1;" xml:space="preserve">
<style type="text/css">
	.st0{display:none;fill:#050505;}
	.st1{fill:#FFFFFF;}
</style>
<g>
	<g id="Layer_2_00000031175433864473012670000006581969989702774404_">
		<g id="Layer_1-2">
			<rect class="st0" width="900.1" height="900.1"/>
			<path class="st1" d="M665.1,676.5c-16,0-45.7-18.2-69.9-35.3C554.6,612.6,503.1,569,450,518.4c-53,50.6-104.5,94.2-145.1,122.8
				c-24.2,17.1-53.9,35.3-69.9,35.3c-3.6,0-6.5-0.9-8.5-2.9c-11.1-11.1,11.5-48.7,32.4-78.4c28.6-40.6,72.2-92.1,122.9-145.2
				c-50.6-53-94.2-104.6-122.9-145.2c-20.9-29.6-43.4-67.3-32.4-78.4s48.7,11.5,78.4,32.4c40.6,28.6,92.1,72.2,145.1,122.8
				c53-50.6,104.6-94.2,145.2-122.9c29.6-20.9,67.3-43.4,78.4-32.4c8.5,8.5-1.1,33-28.5,72.9c-25.8,37.6-66,86.1-113.2,136.5l0,0
				c-7.5,8-7.5,20.4,0,28.4c47.2,50.4,87.4,98.9,113.3,136.5c27.4,39.9,37,64.4,28.5,72.9C671.6,675.6,668.7,676.5,665.1,676.5z
				 M450,514.2l1,1c53.3,51,105.1,94.8,145.9,123.5c40,28.2,67.1,40.1,74.5,32.7c7-7-3.5-32.2-28.9-69.1
				c-25.8-37.5-65.9-85.8-113-136.1c-8.5-9.1-8.5-23.3,0-32.5l1.1,1l-1.1-1c47.1-50.3,87.2-98.7,113-136.1
				c25.4-36.9,35.9-62,28.9-69.1c-7.4-7.4-34.5,4.5-74.5,32.7c-40.7,28.7-92.5,72.6-145.8,123.6l-1,1l-1-1
				c-53.3-51-105.1-94.8-145.9-123.6c-40-28.2-67.1-40.1-74.5-32.7s4.5,34.6,32.7,74.5c28.6,40.8,72.5,92.6,123.5,145.9l1,1l-1,1
				c-51,53.3-94.8,105.1-123.6,145.9c-28.2,40-40.1,67.1-32.7,74.5s34.6-4.5,74.5-32.7c40.8-28.7,92.6-72.6,145.9-123.5L450,514.2z"
				/>
			<path class="st1" d="M494.5,489.2L494.5,489.2l51.3,51.2l-5.3,5.3l-50-50l-1.5-1c-9.9-7.2-23.8-5-31,5c-2,2.8-3.4,6.1-4,9.5
				l-0.2,1.5v124.1h-7.5V509.7l-0.1-0.4c-1.9-12.1-13.3-20.4-25.5-18.5c-3.4,0.5-6.7,1.9-9.5,4l-2.2,1.6l-49.5,49.5l-5.3-5.3
				l51.8-51.8c6.9-10.1,4.3-24-5.8-30.9c-2.7-1.9-5.8-3.1-9.1-3.6l-2.8-0.4H265.3v-7.5H392c12-2.4,19.9-14,17.5-26.1
				c-0.6-3.2-1.9-6.2-3.8-8.8l-1.1-1.6l-50.3-50.3l5.3-5.3l51.6,51.6l0,0c9.9,7.2,23.8,5,31-5c2-2.8,3.4-6.1,4-9.5l0.1-0.4V265.3
				h7.5v124.7l0.2,1.5c1.9,12.1,13.3,20.4,25.4,18.5c3.2-0.5,6.3-1.7,9.1-3.6l52-52l5.3,5.3l-49.7,49.7l-1.6,2.2
				c-7.2,9.9-5,23.8,4.9,31c2.6,1.9,5.6,3.2,8.8,3.8h126.6v7.5h-123l-2.8,0.4c-12.1,2-20.4,13.4-18.4,25.5
				C491.2,483.2,492.5,486.4,494.5,489.2z"/>
			<g>
				
					<image style="overflow:visible;enable-background:new    ;" width="2191" height="2191" xlink:href="2DD93BB8BCE2DE13.png"  transform="matrix(0.24 0 0 0.24 187.12 187.15)">
				</image>
				<path class="st1" d="M494.5,489.3L494.5,489.3l51.3,51.2l-5.3,5.3l-50-50l-1.5-1c-9.9-7.2-23.8-5-31,5c-2,2.8-3.4,6.1-4,9.5
					l-0.2,1.5v124.1h-7.5V509.8l-0.1-0.4c-1.9-12.1-13.3-20.4-25.5-18.5c-3.4,0.5-6.7,1.9-9.5,4l-2.2,1.6l-49.5,49.5l-5.3-5.3
					l51.8-51.8c6.9-10.1,4.3-24-5.8-30.9c-2.7-1.9-5.8-3.1-9.1-3.6l-2.8-0.4H265.3v-7.5H392c12-2.4,19.9-14,17.5-26.1
					c-0.6-3.2-1.9-6.2-3.8-8.8l-1.1-1.6l-50.3-50.3l5.3-5.3l51.6,51.6l0,0c9.9,7.2,23.8,5,31-5c2-2.8,3.4-6.1,4-9.5l0.1-0.4V265.4
					h7.5V390l0.2,1.5c1.9,12.1,13.3,20.4,25.4,18.5c3.2-0.5,6.3-1.7,9.1-3.6l52-52l5.3,5.3l-49.7,49.7l-1.6,2.2
					c-7.2,9.9-5,23.8,4.9,31c2.6,1.9,5.6,3.2,8.8,3.8h126.6v7.5h-123l-2.8,0.4c-12.1,1.9-20.4,13.4-18.4,25.5
					C491.1,483.2,492.5,486.5,494.5,489.3z"/>
			</g>
		</g>
	</g>
</g>
</svg>
