<?xml version="1.0" encoding="utf-8"?>
<!-- Generator: Adobe Illustrator 26.1.0, SVG Export Plug-In . SVG Version: 6.00 Build 0)  -->
<svg version="1.1" id="Layer_1" xmlns="http://www.w3.org/2000/svg" xmlns:xlink="http://www.w3.org/1999/xlink" x="0px" y="0px"
	 viewBox="0 0 900.1 900.1" style="enable-background:new 0 0 900.1 900.1;" xml:space="preserve">
<style type="text/css">
	.st0{display:none;fill:#050505;}
	.st1{fill:#FFFFFF;}
	.st2{fill:#FCFDFF;}
	.st3{clip-path:url(#SVGID_00000018950944348997527210000015672004351772086420_);}
	.st4{clip-path:url(#SVGID_00000075128090442107329450000001902110184584966537_);}
	.st5{clip-path:url(#SVGID_00000107580802728260774570000005523812863470445478_);}
</style>
<g>
	<g id="Layer_2_00000090261794556766142300000013108419549451167906_">
		<g id="Layer_1-2">
			<rect class="st0" width="900.1" height="900.1"/>
			<path class="st1" d="M285.1,474.5c-52.2,0-93.1-12-93.1-27.4s40.9-27.4,93.1-27.4s93.1,12,93.1,27.4S337.3,474.5,285.1,474.5z
				 M285.1,422.6c-53.9,0-90.1,12.6-90.1,24.4s36.2,24.4,90.1,24.4s90.1-12.6,90.1-24.4S339,422.6,285.1,422.6z"/>
			<path class="st1" d="M285.1,458.8c-52.2,0-93.1-12-93.1-27.4s40.9-27.4,93.1-27.4s93.1,12,93.1,27.4S337.3,458.8,285.1,458.8z
				 M285.1,407c-53.9,0-90.1,12.6-90.1,24.4s36.2,24.4,90.1,24.4s90.1-12.6,90.1-24.4S339,407,285.1,407L285.1,407z"/>
			<path class="st1" d="M241.5,581.2v3h-26.6l-9.4,1.3c-4.9,0.6-8.7,4.5-9.3,9.3l-1.1,8.2v136.4h-3V603.6l-1.2-8.8
				c-0.7-4.9-4.5-8.7-9.3-9.3l-9.4-1.3h-23.8v-3h25.6l7.6-1c4.9-0.6,8.7-4.5,9.3-9.3l1.2-8.8V430.7h3v131.9l1.1,8.2
				c0.6,4.9,4.5,8.7,9.3,9.3l7.6,1L241.5,581.2z"/>
			<path class="st1" d="M615,474.5c-52.2,0-93.1-12-93.1-27.4s40.9-27.4,93.1-27.4s93.1,12,93.1,27.4S667.1,474.5,615,474.5z
				 M615,422.6c-53.9,0-90.1,12.6-90.1,24.4s36.2,24.4,90.1,24.4s90-12.6,90-24.4S668.8,422.6,615,422.6z"/>
			<path class="st1" d="M615,458.8c-52.2,0-93.1-12-93.1-27.4S562.8,404,615,404s93,12,93,27.4S667.1,458.8,615,458.8z M615,407
				c-53.9,0-90.1,12.6-90.1,24.4s36.1,24.4,90.1,24.4s90-12.6,90-24.4S668.8,407,615,407z"/>
			<path class="st1" d="M658.5,581.2v3h26.6l9.4,1.3c4.9,0.6,8.7,4.5,9.3,9.3l1.1,8.2v136.5h3V603.6l1.2-8.8
				c0.7-4.9,4.5-8.7,9.3-9.3l9.4-1.3h23.8v-3h-25.6l-7.6-1c-4.9-0.6-8.7-4.5-9.3-9.3L708,562V430.7h-3v131.9l-1.1,8.2
				c-0.6,4.9-4.5,8.7-9.3,9.3l-7.6,1L658.5,581.2z"/>
			<path class="st2" d="M498,437.8v3h-26.7c-3.2,0.3-6.3,0.7-9.4,1.3c-4.9,0.6-8.7,4.5-9.3,9.3c-0.5,2.7-0.9,5.5-1.1,8.2v24.4h-3
				v-23.8c-0.1-3-0.5-5.9-1.2-8.8c-0.6-4.9-4.6-7.9-9.3-9.3c-2.4-0.8-4.9-1.2-7.5-1.3h-26.8v-3h26.6c2.6,0,5.1-0.4,7.6-1
				c4.7-0.9,8.4-4.6,9.3-9.3c0.7-3.4,1.2-4.8,1.2-8v-23.4h3c0,0,0,17.6,0,23.4c0,2.7,0.3,5.3,1.1,7.9c1,4.8,4.5,8.7,9.3,9.3
				c2.5,0.5,5.1,0.8,7.6,1L498,437.8z"/>
			
				<image style="overflow:visible;enable-background:new    ;" width="272" height="2091" xlink:href="B838CD27241F3F50.png"  transform="matrix(0.24 0 0 0.24 160.87 107.69)">
			</image>
			<g>
				<polygon class="st1" points="194.3,137.9 196,579.3 191.1,579.3 				"/>
			</g>
			
				<image style="overflow:visible;enable-background:new    ;" width="522" height="2340" xlink:href="B838CD27241F3F51.png"  transform="matrix(0.24 0 0 0.24 130.87 77.69)">
			</image>
			<g>
				<defs>
					<polygon id="SVGID_1_" points="194.3,137.9 196,579.3 191.1,579.3 					"/>
				</defs>
				<clipPath id="SVGID_00000069387641785681579050000007196688965672614065_">
					<use xlink:href="#SVGID_1_"  style="overflow:visible;"/>
				</clipPath>
				<g style="clip-path:url(#SVGID_00000069387641785681579050000007196688965672614065_);">
					<rect x="191.1" y="137.9" class="st1" width="4.9" height="441.4"/>
				</g>
			</g>
			
				<image style="overflow:visible;enable-background:new    ;" width="272" height="2091" xlink:href="B838CD27241F3F57.png"  transform="matrix(0.24 0 0 0.24 673.75 107.69)">
			</image>
			<g>
				<polygon class="st1" points="707.2,137.9 708.9,579.3 704,579.3 				"/>
			</g>
			
				<image style="overflow:visible;enable-background:new    ;" width="522" height="2340" xlink:href="B838CD27241F3F52.png"  transform="matrix(0.24 0 0 0.24 643.75 77.69)">
			</image>
			<g>
				<defs>
					<polygon id="SVGID_00000149368245670481480990000011602540932082512774_" points="707.2,137.9 708.9,579.3 704,579.3 					"/>
				</defs>
				<clipPath id="SVGID_00000179609410954022878360000004261656297996134825_">
					<use xlink:href="#SVGID_00000149368245670481480990000011602540932082512774_"  style="overflow:visible;"/>
				</clipPath>
				<g style="clip-path:url(#SVGID_00000179609410954022878360000004261656297996134825_);">
					<rect x="704" y="137.9" class="st1" width="4.9" height="441.4"/>
				</g>
			</g>
			
				<image style="overflow:visible;enable-background:new    ;" width="273" height="1791" xlink:href="B838CD27241F3F53.png"  transform="matrix(0.24 0 0 0.24 417.19 39.24)">
			</image>
			<g>
				<polygon class="st1" points="450.6,69.5 452.6,438.9 447.3,438.9 				"/>
			</g>
			
				<image style="overflow:visible;enable-background:new    ;" width="523" height="2041" xlink:href="B838CD27241F3F5E.png"  transform="matrix(0.24 0 0 0.24 387.19 9.24)">
			</image>
			<g>
				<defs>
					<polygon id="SVGID_00000049930339460388087180000007690289447702521530_" points="450.5,69.4 452.5,438.9 447.3,438.9 					"/>
				</defs>
				<clipPath id="SVGID_00000176739626883713456570000014361155499443949959_">
					<use xlink:href="#SVGID_00000049930339460388087180000007690289447702521530_"  style="overflow:visible;"/>
				</clipPath>
				<g style="clip-path:url(#SVGID_00000176739626883713456570000014361155499443949959_);">
					<rect x="447.3" y="69.4" class="st1" width="5.2" height="369.5"/>
				</g>
			</g>
		</g>
	</g>
</g>
</svg>
