<?xml version="1.0" encoding="utf-8"?>
<!-- Generator: Adobe Illustrator 26.1.0, SVG Export Plug-In . SVG Version: 6.00 Build 0)  -->
<svg version="1.1" id="Layer_1" xmlns="http://www.w3.org/2000/svg" xmlns:xlink="http://www.w3.org/1999/xlink" x="0px" y="0px"
	 viewBox="0 0 900.1 900.1" style="enable-background:new 0 0 900.1 900.1;" xml:space="preserve">
<style type="text/css">
	.st0{display:none;fill:#050505;}
	.st1{fill:#FFFFFF;}
	.st2{clip-path:url(#SVGID_00000041999276648873491000000013725938881256567965_);}
	.st3{clip-path:url(#SVGID_00000070108470047926808720000007389359104878705552_);}
</style>
<g>
	<g id="Layer_2_00000016048332137806145800000010505695827802412947_">
		<g id="Layer_1-2">
			<rect class="st0" width="900.1" height="900.1"/>
			<path class="st1" d="M450,592.1c-115.6,0-209.7-94-209.7-209.7S334.4,172.8,450,172.8s209.7,94.1,209.7,209.7
				S565.6,592.1,450,592.1z M450,175.8c-114,0-206.7,92.7-206.7,206.7S336.1,589.1,450,589.1s206.7-92.7,206.7-206.7
				S564,175.8,450,175.8L450,175.8z"/>
			<path class="st1" d="M450,592.1c-106.6,0-193.3-94-193.3-209.7S343.4,172.8,450,172.8s193.3,94.1,193.3,209.7
				S556.6,592.1,450,592.1z M450,175.8c-105,0-190.3,92.7-190.3,206.7S345.1,589.1,450,589.1s190.3-92.7,190.3-206.7
				S555,175.8,450,175.8L450,175.8z"/>
			<path class="st1" d="M563.6,669.2v3H512c-24.1,0-32.7,11.2-32.7,23.5v30.5h-3v-30.5c0-4.7-1.5-9.3-4.1-13.2
				c-3-4.4-9-5.6-13.4-2.6c-0.6,0.4-1.2,0.9-1.7,1.5c-3.5,3.9-5.3,9-5.2,14.3v30.5h-3v-30.5c0-5-1.6-9.8-4.6-13.7
				c-3.2-4.2-9.2-5-13.4-1.8c-0.7,0.5-1.3,1.1-1.8,1.8c-3,4-4.6,8.8-4.6,13.7v30.5h-3v-30.5c0-12.2-8.6-23.5-32.7-23.5h-51.7v-3
				h52.2c23.8,0,32.1-12.6,32.1-25.3c0-8.4,0.2-28.7,0.2-28.7h2.5c0,0,0.4,20.2,0.4,28.8c0,5,1.4,9.9,4.1,14.1
				c2.9,4.4,8.9,5.6,13.3,2.7c1.1-0.7,2-1.6,2.7-2.7c2.7-4.2,4.1-9.1,4.1-14.1v-470h3v469.9c-0.1,5.4,1.6,10.7,4.9,15
				c3.3,4.1,9.4,4.8,13.5,1.4c0.8-0.7,1.5-1.4,2.1-2.3c2.7-4.2,4.1-9,4.1-14v-28.8h2.8c0,0,0.3,20.2,0.3,28.7
				c0,12.7,8.2,25.3,31.9,25.3H563.6L563.6,669.2z"/>
			
				<image style="overflow:visible;enable-background:new    ;" width="398" height="1104" xlink:href="CE3762A310604785.png"  transform="matrix(0.24 0 0 0.24 375.15 446.39)">
			</image>
			<g>
				<polygon class="st1" points="423.4,491.4 425.6,666.2 420.2,666.2 				"/>
			</g>
			
				<image style="overflow:visible;enable-background:new    ;" width="323" height="1051" xlink:href="CE3762A310604787.png"  transform="matrix(0.24 0 0 0.24 384.15 455.39)">
			</image>
			<g>
				<defs>
					<polygon id="SVGID_1_" points="422.6,491.4 424.6,653.4 425.6,671.4 420.2,671.4 421.4,653.4 					"/>
				</defs>
				<clipPath id="SVGID_00000041281646359570120270000006679836727448977039_">
					<use xlink:href="#SVGID_1_"  style="overflow:visible;"/>
				</clipPath>
				<g style="clip-path:url(#SVGID_00000041281646359570120270000006679836727448977039_);">
					<rect x="420.2" y="491.4" class="st1" width="5.5" height="180"/>
				</g>
			</g>
			
				<image style="overflow:visible;enable-background:new    ;" width="399" height="1104" xlink:href="CE3762A310604782.png"  transform="matrix(0.24 0 0 0.24 429.87 446.15)">
			</image>
			<g>
				<polygon class="st1" points="478.2,491.3 480.4,666 475,666 				"/>
			</g>
			
				<image style="overflow:visible;enable-background:new    ;" width="324" height="1051" xlink:href="CE3762A310604783.png"  transform="matrix(0.24 0 0 0.24 438.87 454.91)">
			</image>
			<g>
				<defs>
					<polygon id="SVGID_00000039129838123542186500000007968104347144737962_" points="477.5,491.1 479.4,653.1 480.5,671.1 
						475,671.1 476.2,653.1 					"/>
				</defs>
				<clipPath id="SVGID_00000145751672521377754720000001867145058079490955_">
					<use xlink:href="#SVGID_00000039129838123542186500000007968104347144737962_"  style="overflow:visible;"/>
				</clipPath>
				<g style="clip-path:url(#SVGID_00000145751672521377754720000001867145058079490955_);">
					<rect x="475" y="491.1" class="st1" width="5.5" height="180"/>
				</g>
			</g>
		</g>
	</g>
</g>
</svg>
